<?xml version="1.0" encoding="iso-8859-1"?>
<!DOCTYPE svg PUBLIC "-//W3C//DTD SVG 1.1//EN" "http://www.w3.org/Graphics/SVG/1.1/DTD/svg11.dtd">
<svg version="1.1" id="Capa_1" xmlns="http://www.w3.org/2000/svg" xmlns:xlink="http://www.w3.org/1999/xlink" x="0px" y="0px"
	 viewBox="0 0 454.611 454.611" style="enable-background:new 0 0 454.611 454.611;" xml:space="preserve">
<g fill="#f0f">
	<circle cx="115.709" cy="37.417" r="37.417"/>
	<path d="M262.771,171.003c8.471-5.259,11.075-16.39,5.815-24.861c-3.773-6.077-10.569-9.114-17.236-8.413l0.578-9.773
		c4.225-3.245,6.96-8.332,6.96-14.071c0-9.803-7.947-17.75-17.75-17.75c-9.803,0-17.75,7.947-17.75,17.75
		c0,5.739,2.735,10.826,6.96,14.071l1.18,19.944l-24.368,15.13l-0.169-33.758c-0.118-23.44-19.284-42.51-42.724-42.51h-17.762
		c-3.36,8.714-19.755,51.234-23.143,60.02l5.393-25.456c0.375-1.766,0.103-3.609-0.767-5.191l-7.34-13.35l6.512-11.845
		c0.452-0.822,0.437-1.822-0.041-2.63c-0.478-0.808-1.372-1.55-2.31-1.55h-17.894c-0.938,0-1.781,0.742-2.259,1.55
		c-0.478,0.808-0.493,1.808-0.041,2.63l6.526,11.869l-7.354,13.374c-0.854,1.552-1.132,3.356-0.788,5.094l4.745,25.503
		c-2.541-6.589-20.08-53.811-22.475-60.021H67.151c-23.44,0-42.606,19.07-42.724,42.51l-0.666,132.636
		c-0.05,9.971,7.992,18.095,17.963,18.145c0.031,0,0.062,0.001,0.093,0.001c9.928,0,18.002-8.024,18.052-17.963l0.666-132.636
		c0.01-1.976,1.616-3.57,3.591-3.564c1.975,0.005,3.572,1.608,3.572,3.582l0.009,303.475c0,11.965,9.699,21.665,21.665,21.665
		s21.664-9.699,21.664-21.665V264.455c0-2.583,2.094-4.677,4.677-4.677c2.583,0,4.677,2.094,4.677,4.677v168.491
		c0,11.965,9.699,21.665,21.665,21.665c11.965,0,21.664-9.699,21.664-21.665l-0.385-303.566c-0.003-2.084,1.685-3.776,3.77-3.779
		c2.085-0.003,3.776,1.685,3.779,3.77c0,0.027,0,0.054,0,0.082l0.331,66.026c0.071,14.198,15.695,22.626,27.577,15.247
		l35.162-21.832l0.392,6.617c0.164,2.777,2.464,4.945,5.246,4.945h3.092c2.782,0,5.082-2.168,5.246-4.945l0.94-15.879
		L262.771,171.003z"/>
	<path d="M424.993,122.585c-7.811-7.811-20.475-7.811-28.285,0L258.115,261.177c-7.809,7.81-7.809,20.474,0,28.284
		c7.81,7.81,20.474,7.811,28.285,0l17.737-17.737v170.789c0,6.681,5.416,12.098,12.098,12.098h73.805
		c6.681,0,12.098-5.416,12.098-12.098V173.724l22.855-22.855C432.802,143.058,432.802,130.395,424.993,122.585z"/>
</g>
</svg>
